<svg width="28" height="28" viewBox="0 0 28 28" fill="none" xmlns="http://www.w3.org/2000/svg">
<path d="M8.40008 0.666748H19.6001C23.8667 0.666748 27.3334 4.13341 27.3334 8.40008V19.6001C27.3334 21.6511 26.5187 23.6181 25.0684 25.0684C23.6181 26.5187 21.6511 27.3334 19.6001 27.3334H8.40008C4.13341 27.3334 0.666748 23.8667 0.666748 19.6001V8.40008C0.666748 6.34907 1.48151 4.38207 2.93179 2.93179C4.38207 1.48151 6.34907 0.666748 8.40008 0.666748ZM8.13341 3.33341C6.86037 3.33341 5.63948 3.83913 4.7393 4.7393C3.83913 5.63948 3.33341 6.86037 3.33341 8.13341V19.8667C3.33341 22.5201 5.48008 24.6667 8.13341 24.6667H19.8667C21.1398 24.6667 22.3607 24.161 23.2609 23.2609C24.161 22.3607 24.6667 21.1398 24.6667 19.8667V8.13341C24.6667 5.48008 22.5201 3.33341 19.8667 3.33341H8.13341ZM21.0001 5.33341C21.4421 5.33341 21.866 5.50901 22.1786 5.82157C22.4912 6.13413 22.6667 6.55805 22.6667 7.00008C22.6667 7.44211 22.4912 7.86603 22.1786 8.17859C21.866 8.49115 21.4421 8.66675 21.0001 8.66675C20.5581 8.66675 20.1341 8.49115 19.8216 8.17859C19.509 7.86603 19.3334 7.44211 19.3334 7.00008C19.3334 6.55805 19.509 6.13413 19.8216 5.82157C20.1341 5.50901 20.5581 5.33341 21.0001 5.33341ZM14.0001 7.33341C15.7682 7.33341 17.4639 8.03579 18.7141 9.28604C19.9644 10.5363 20.6667 12.232 20.6667 14.0001C20.6667 15.7682 19.9644 17.4639 18.7141 18.7141C17.4639 19.9644 15.7682 20.6667 14.0001 20.6667C12.232 20.6667 10.5363 19.9644 9.28604 18.7141C8.03579 17.4639 7.33341 15.7682 7.33341 14.0001C7.33341 12.232 8.03579 10.5363 9.28604 9.28604C10.5363 8.03579 12.232 7.33341 14.0001 7.33341ZM14.0001 10.0001C12.9392 10.0001 11.9218 10.4215 11.1717 11.1717C10.4215 11.9218 10.0001 12.9392 10.0001 14.0001C10.0001 15.0609 10.4215 16.0784 11.1717 16.8285C11.9218 17.5787 12.9392 18.0001 14.0001 18.0001C15.0609 18.0001 16.0784 17.5787 16.8285 16.8285C17.5787 16.0784 18.0001 15.0609 18.0001 14.0001C18.0001 12.9392 17.5787 11.9218 16.8285 11.1717C16.0784 10.4215 15.0609 10.0001 14.0001 10.0001Z" fill="white"/>
</svg>
