<svg width="18" height="18" viewBox="0 0 18 18" fill="none" xmlns="http://www.w3.org/2000/svg">
<path d="M9 0L10.7565 4.75939L15.364 2.63604L13.2406 7.24348L18 9L13.2406 10.7565L15.364 15.364L10.7565 13.2406L9 18L7.24348 13.2406L2.63604 15.364L4.75939 10.7565L0 9L4.75939 7.24348L2.63604 2.63604L7.24348 4.75939L9 0Z" fill="#D9D9D9"/>
<path d="M9 0L10.7565 4.75939L15.364 2.63604L13.2406 7.24348L18 9L13.2406 10.7565L15.364 15.364L10.7565 13.2406L9 18L7.24348 13.2406L2.63604 15.364L4.75939 10.7565L0 9L4.75939 7.24348L2.63604 2.63604L7.24348 4.75939L9 0Z" fill="url(#paint0_linear_227_546)"/>
<defs>
<linearGradient id="paint0_linear_227_546" x1="9" y1="0" x2="9" y2="18" gradientUnits="userSpaceOnUse">
<stop stop-color="#FBB009"/>
<stop offset="1" stop-color="#F47220"/>
</linearGradient>
</defs>
</svg>
